<mxfile host="Electron" modified="2023-10-27T12:46:29.078Z" agent="Mozilla/5.0 (Windows NT 10.0; Win64; x64) AppleWebKit/537.36 (KHTML, like Gecko) draw.io/22.0.0 Chrome/114.0.5735.289 Electron/25.8.3 Safari/537.36" etag="i8VLHSZoFwm8KmUGaB0Z" version="22.0.0" type="device">
  <diagram name="Page-1" id="bp1JehvTpo2gDV-63CWs">
    <mxGraphModel dx="1036" dy="606" grid="1" gridSize="10" guides="1" tooltips="1" connect="1" arrows="1" fold="1" page="1" pageScale="1" pageWidth="827" pageHeight="1169" math="0" shadow="0">
      <root>
        <mxCell id="0" />
        <mxCell id="1" parent="0" />
        <mxCell id="PPLVJCQMwf8NUr0yYwQW-1" value="DB" style="shape=cylinder3;whiteSpace=wrap;html=1;boundedLbl=1;backgroundOutline=1;size=15;sketch=1;hachureGap=4;jiggle=2;curveFitting=1;fontFamily=Architects Daughter;fontSource=https%3A%2F%2Ffonts.googleapis.com%2Fcss%3Ffamily%3DArchitects%2BDaughter;fontSize=20;fontStyle=1;fillColor=#dae8fc;strokeColor=#6c8ebf;" vertex="1" parent="1">
          <mxGeometry x="90" y="230" width="70" height="90" as="geometry" />
        </mxCell>
        <mxCell id="PPLVJCQMwf8NUr0yYwQW-19" style="edgeStyle=orthogonalEdgeStyle;rounded=0;sketch=1;hachureGap=4;jiggle=2;curveFitting=1;orthogonalLoop=1;jettySize=auto;html=1;exitX=0.5;exitY=0;exitDx=0;exitDy=0;exitPerimeter=0;entryX=0.5;entryY=0;entryDx=0;entryDy=0;fontFamily=Architects Daughter;fontSource=https%3A%2F%2Ffonts.googleapis.com%2Fcss%3Ffamily%3DArchitects%2BDaughter;fontSize=16;" edge="1" parent="1" source="PPLVJCQMwf8NUr0yYwQW-2" target="PPLVJCQMwf8NUr0yYwQW-17">
          <mxGeometry relative="1" as="geometry" />
        </mxCell>
        <mxCell id="PPLVJCQMwf8NUr0yYwQW-2" value="Event backbone" style="shape=cylinder3;whiteSpace=wrap;html=1;boundedLbl=1;backgroundOutline=1;size=15;sketch=1;hachureGap=4;jiggle=2;curveFitting=1;fontFamily=Architects Daughter;fontSource=https%3A%2F%2Ffonts.googleapis.com%2Fcss%3Ffamily%3DArchitects%2BDaughter;fontSize=20;rotation=-180;horizontal=0;fontStyle=1;fillColor=#dae8fc;strokeColor=#6c8ebf;" vertex="1" parent="1">
          <mxGeometry x="320" y="190" width="60" height="210" as="geometry" />
        </mxCell>
        <mxCell id="PPLVJCQMwf8NUr0yYwQW-3" value="Service A" style="rounded=0;whiteSpace=wrap;html=1;sketch=1;hachureGap=4;jiggle=2;curveFitting=1;fontFamily=Architects Daughter;fontSource=https%3A%2F%2Ffonts.googleapis.com%2Fcss%3Ffamily%3DArchitects%2BDaughter;fontSize=20;fontStyle=1;fillColor=#d5e8d4;strokeColor=#82b366;" vertex="1" parent="1">
          <mxGeometry x="65" y="80" width="120" height="60" as="geometry" />
        </mxCell>
        <mxCell id="PPLVJCQMwf8NUr0yYwQW-4" style="edgeStyle=orthogonalEdgeStyle;rounded=0;sketch=1;hachureGap=4;jiggle=2;curveFitting=1;orthogonalLoop=1;jettySize=auto;html=1;exitX=0.5;exitY=1;exitDx=0;exitDy=0;entryX=0.5;entryY=0;entryDx=0;entryDy=0;entryPerimeter=0;fontFamily=Architects Daughter;fontSource=https%3A%2F%2Ffonts.googleapis.com%2Fcss%3Ffamily%3DArchitects%2BDaughter;fontSize=16;" edge="1" parent="1" source="PPLVJCQMwf8NUr0yYwQW-3" target="PPLVJCQMwf8NUr0yYwQW-1">
          <mxGeometry relative="1" as="geometry" />
        </mxCell>
        <mxCell id="PPLVJCQMwf8NUr0yYwQW-14" value="CRUD" style="edgeLabel;html=1;align=center;verticalAlign=middle;resizable=0;points=[];fontSize=20;fontFamily=Architects Daughter;fontStyle=1" vertex="1" connectable="0" parent="PPLVJCQMwf8NUr0yYwQW-4">
          <mxGeometry x="-0.105" y="1" relative="1" as="geometry">
            <mxPoint x="-36" as="offset" />
          </mxGeometry>
        </mxCell>
        <mxCell id="PPLVJCQMwf8NUr0yYwQW-5" value="Databases represent latest state of things" style="text;html=1;strokeColor=none;fillColor=none;align=left;verticalAlign=middle;whiteSpace=wrap;rounded=0;fontSize=20;fontFamily=Architects Daughter;horizontal=0;fontStyle=1" vertex="1" parent="1">
          <mxGeometry x="160" y="150" width="60" height="220" as="geometry" />
        </mxCell>
        <mxCell id="PPLVJCQMwf8NUr0yYwQW-6" value="Service B" style="rounded=0;whiteSpace=wrap;html=1;sketch=1;hachureGap=4;jiggle=2;curveFitting=1;fontFamily=Architects Daughter;fontSource=https%3A%2F%2Ffonts.googleapis.com%2Fcss%3Ffamily%3DArchitects%2BDaughter;fontSize=20;fontStyle=1;fillColor=#f8cecc;strokeColor=#b85450;" vertex="1" parent="1">
          <mxGeometry x="65" y="450" width="120" height="60" as="geometry" />
        </mxCell>
        <mxCell id="PPLVJCQMwf8NUr0yYwQW-10" value="" style="points=[[0.145,0.145,0],[0.5,0,0],[0.855,0.145,0],[1,0.5,0],[0.855,0.855,0],[0.5,1,0],[0.145,0.855,0],[0,0.5,0]];shape=mxgraph.bpmn.event;html=1;verticalLabelPosition=bottom;labelBackgroundColor=#ffffff;verticalAlign=top;align=center;perimeter=ellipsePerimeter;outlineConnect=0;aspect=fixed;outline=eventNonint;symbol=timer;hachureGap=4;fontFamily=Architects Daughter;fontSource=https%3A%2F%2Ffonts.googleapis.com%2Fcss%3Ffamily%3DArchitects%2BDaughter;fontSize=20;" vertex="1" parent="1">
          <mxGeometry y="380" width="50" height="50" as="geometry" />
        </mxCell>
        <mxCell id="PPLVJCQMwf8NUr0yYwQW-13" style="edgeStyle=orthogonalEdgeStyle;rounded=0;sketch=1;hachureGap=4;jiggle=2;curveFitting=1;orthogonalLoop=1;jettySize=auto;html=1;exitX=0.5;exitY=0;exitDx=0;exitDy=0;entryX=0.5;entryY=1;entryDx=0;entryDy=0;entryPerimeter=0;fontFamily=Architects Daughter;fontSource=https%3A%2F%2Ffonts.googleapis.com%2Fcss%3Ffamily%3DArchitects%2BDaughter;fontSize=16;" edge="1" parent="1" source="PPLVJCQMwf8NUr0yYwQW-6" target="PPLVJCQMwf8NUr0yYwQW-1">
          <mxGeometry relative="1" as="geometry" />
        </mxCell>
        <mxCell id="PPLVJCQMwf8NUr0yYwQW-15" value="Bulk load data&lt;br&gt;in cron job" style="edgeLabel;html=1;align=center;verticalAlign=middle;resizable=0;points=[];fontSize=20;fontFamily=Architects Daughter;fontStyle=1" vertex="1" connectable="0" parent="PPLVJCQMwf8NUr0yYwQW-13">
          <mxGeometry x="-0.216" y="-1" relative="1" as="geometry">
            <mxPoint x="-6" y="2" as="offset" />
          </mxGeometry>
        </mxCell>
        <mxCell id="PPLVJCQMwf8NUr0yYwQW-16" value="Service A" style="rounded=0;whiteSpace=wrap;html=1;sketch=1;hachureGap=4;jiggle=2;curveFitting=1;fontFamily=Architects Daughter;fontSource=https%3A%2F%2Ffonts.googleapis.com%2Fcss%3Ffamily%3DArchitects%2BDaughter;fontSize=20;fontStyle=1;fillColor=#d5e8d4;strokeColor=#82b366;" vertex="1" parent="1">
          <mxGeometry x="290" y="80" width="120" height="60" as="geometry" />
        </mxCell>
        <mxCell id="PPLVJCQMwf8NUr0yYwQW-17" value="Service B" style="rounded=0;whiteSpace=wrap;html=1;sketch=1;hachureGap=4;jiggle=2;curveFitting=1;fontFamily=Architects Daughter;fontSource=https%3A%2F%2Ffonts.googleapis.com%2Fcss%3Ffamily%3DArchitects%2BDaughter;fontSize=20;fontStyle=1;fillColor=#f8cecc;strokeColor=#b85450;" vertex="1" parent="1">
          <mxGeometry x="290" y="450" width="120" height="60" as="geometry" />
        </mxCell>
        <mxCell id="PPLVJCQMwf8NUr0yYwQW-18" style="edgeStyle=orthogonalEdgeStyle;rounded=0;sketch=1;hachureGap=4;jiggle=2;curveFitting=1;orthogonalLoop=1;jettySize=auto;html=1;exitX=0.5;exitY=1;exitDx=0;exitDy=0;entryX=0.5;entryY=1;entryDx=0;entryDy=0;entryPerimeter=0;fontFamily=Architects Daughter;fontSource=https%3A%2F%2Ffonts.googleapis.com%2Fcss%3Ffamily%3DArchitects%2BDaughter;fontSize=16;" edge="1" parent="1" source="PPLVJCQMwf8NUr0yYwQW-16" target="PPLVJCQMwf8NUr0yYwQW-2">
          <mxGeometry relative="1" as="geometry" />
        </mxCell>
        <mxCell id="PPLVJCQMwf8NUr0yYwQW-20" value="Event backbones allow us to stream changes as events as they happen" style="text;html=1;strokeColor=none;fillColor=none;align=left;verticalAlign=middle;whiteSpace=wrap;rounded=0;fontSize=20;fontFamily=Architects Daughter;horizontal=0;fontStyle=1" vertex="1" parent="1">
          <mxGeometry x="410" y="170" width="60" height="220" as="geometry" />
        </mxCell>
        <mxCell id="PPLVJCQMwf8NUr0yYwQW-21" value="" style="endArrow=none;dashed=1;html=1;dashPattern=1 3;strokeWidth=2;rounded=0;sketch=1;hachureGap=4;jiggle=2;curveFitting=1;fontFamily=Architects Daughter;fontSource=https%3A%2F%2Ffonts.googleapis.com%2Fcss%3Ffamily%3DArchitects%2BDaughter;fontSize=16;" edge="1" parent="1">
          <mxGeometry width="50" height="50" relative="1" as="geometry">
            <mxPoint x="240" y="550" as="sourcePoint" />
            <mxPoint x="240" y="40" as="targetPoint" />
          </mxGeometry>
        </mxCell>
        <mxCell id="PPLVJCQMwf8NUr0yYwQW-23" value="Batching" style="text;html=1;align=center;verticalAlign=middle;resizable=0;points=[];autosize=1;strokeColor=none;fillColor=none;fontSize=20;fontFamily=Architects Daughter;fontStyle=1" vertex="1" parent="1">
          <mxGeometry x="75" y="20" width="100" height="40" as="geometry" />
        </mxCell>
        <mxCell id="PPLVJCQMwf8NUr0yYwQW-24" value="Streaming" style="text;html=1;align=center;verticalAlign=middle;resizable=0;points=[];autosize=1;strokeColor=none;fillColor=none;fontSize=20;fontFamily=Architects Daughter;fontStyle=1" vertex="1" parent="1">
          <mxGeometry x="290" y="20" width="120" height="40" as="geometry" />
        </mxCell>
        <mxCell id="PPLVJCQMwf8NUr0yYwQW-25" value="" style="shadow=0;dashed=0;html=1;strokeColor=#666666;fillColor=#f5f5f5;labelPosition=center;verticalLabelPosition=bottom;verticalAlign=top;align=center;outlineConnect=0;shape=mxgraph.veeam.2d.letter;hachureGap=4;fontFamily=Architects Daughter;fontSource=https%3A%2F%2Ffonts.googleapis.com%2Fcss%3Ffamily%3DArchitects%2BDaughter;fontSize=20;fontColor=#333333;" vertex="1" parent="1">
          <mxGeometry x="360" y="410" width="36.4" height="24.8" as="geometry" />
        </mxCell>
        <mxCell id="PPLVJCQMwf8NUr0yYwQW-27" value="" style="shadow=0;dashed=0;html=1;strokeColor=#666666;fillColor=#f5f5f5;labelPosition=center;verticalLabelPosition=bottom;verticalAlign=top;align=center;outlineConnect=0;shape=mxgraph.veeam.2d.letter;hachureGap=4;fontFamily=Architects Daughter;fontSource=https%3A%2F%2Ffonts.googleapis.com%2Fcss%3Ffamily%3DArchitects%2BDaughter;fontSize=20;fontColor=#333333;" vertex="1" parent="1">
          <mxGeometry x="300" y="160" width="36.4" height="24.8" as="geometry" />
        </mxCell>
      </root>
    </mxGraphModel>
  </diagram>
</mxfile>
